<?xml version="1.0" standalone="no"?>
<!DOCTYPE svg PUBLIC "-//W3C//DTD SVG 20010904//EN"
 "http://www.w3.org/TR/2001/REC-SVG-20010904/DTD/svg10.dtd">
<svg version="1.0" xmlns="http://www.w3.org/2000/svg"
 width="512.000000pt" height="512.000000pt" viewBox="0 0 512.000000 512.000000"
 preserveAspectRatio="xMidYMid meet">

<g transform="translate(0.000000,512.000000) scale(0.100000,-0.100000)"
fill="#f9a927" stroke="none">
<path d="M1805 5089 c-205 -27 -458 -104 -650 -200 -108 -54 -295 -172 -369
-233 l-29 -24 103 -113 c159 -178 242 -306 295 -456 48 -138 54 -226 28 -412
-14 -104 -15 -138 -5 -215 21 -164 61 -259 211 -491 129 -199 155 -246 185
-337 48 -142 33 -296 -45 -452 -52 -104 -101 -171 -272 -373 -180 -213 -347
-420 -347 -430 0 -11 99 -74 210 -132 181 -95 393 -166 615 -206 89 -16 465
-34 465 -22 0 4 -24 44 -54 89 -68 106 -106 181 -144 289 -228 647 52 1357
659 1669 122 63 276 115 399 135 123 19 331 19 451 -1 180 -30 392 -115 541
-217 l66 -45 7 46 c8 53 -4 303 -15 322 -4 6 -267 76 -583 156 -905 226 -922
231 -1035 330 -101 89 -200 260 -243 419 -18 64 -22 109 -22 225 0 181 19 262
122 499 39 91 70 165 68 166 -1 1 -43 7 -93 14 -104 13 -416 13 -519 0z"/>
<path d="M2512 5033 c-32 -60 -144 -341 -164 -408 -29 -104 -32 -305 -5 -404
40 -148 101 -263 187 -351 74 -77 123 -103 270 -145 123 -35 1272 -325 1289
-325 17 0 -47 250 -99 382 -160 416 -467 785 -850 1021 -113 70 -291 152 -425
196 -160 53 -190 58 -203 34z"/>
<path d="M580 4463 c-267 -279 -445 -617 -524 -993 -143 -678 66 -1384 553
-1871 102 -102 185 -174 207 -181 6 -2 55 53 110 122 55 69 163 199 240 290
170 200 226 275 269 360 46 92 65 162 65 245 0 129 -35 211 -192 453 -209 322
-262 503 -224 772 26 188 17 277 -44 423 -55 133 -218 351 -338 451 l-30 26
-92 -97z"/>
<path d="M3045 3070 c-509 -102 -893 -485 -1002 -1000 -12 -61 -17 -129 -17
-240 0 -166 14 -260 60 -398 123 -369 426 -676 789 -797 317 -107 684 -83 973
64 327 167 563 456 658 806 191 705 -264 1426 -988 1566 -130 25 -346 25 -473
-1z m438 -155 c405 -71 745 -380 863 -783 145 -503 -95 -1051 -565 -1286 -180
-91 -334 -122 -550 -113 -234 10 -424 77 -608 216 -204 153 -342 362 -410 620
-23 84 -26 116 -26 261 0 145 3 177 26 261 35 132 77 229 145 334 175 271 445
445 772 498 64 11 275 6 353 -8z"/>
<path d="M3090 2815 c-274 -55 -524 -232 -666 -471 -54 -91 -98 -201 -120
-299 -26 -110 -26 -320 0 -430 89 -392 403 -696 794 -771 153 -29 364 -14 512
36 439 151 724 597 673 1053 -50 444 -376 799 -811 883 -90 17 -294 17 -382
-1z m313 -526 c155 -161 275 -332 317 -452 66 -187 -39 -421 -230 -516 -234
-115 -505 -20 -618 216 -35 74 -37 83 -37 178 0 91 3 106 32 167 44 95 137
226 241 343 103 117 156 165 180 165 9 0 61 -45 115 -101z"/>
<path d="M3244 2228 c-139 -147 -270 -330 -299 -419 -50 -150 34 -328 191
-405 52 -25 70 -28 149 -28 79 0 97 3 149 28 151 73 237 246 196 392 -24 85
-145 258 -291 417 l-54 59 -41 -44z"/>
<path d="M4252 872 l-84 -86 384 -383 384 -383 47 0 c55 0 91 20 113 61 18 36
18 73 0 107 -8 15 -183 194 -388 398 l-373 371 -83 -85z"/>
</g>
</svg>
