<?xml version="1.0" standalone="no"?>
<!DOCTYPE svg PUBLIC "-//W3C//DTD SVG 20010904//EN"
 "http://www.w3.org/TR/2001/REC-SVG-20010904/DTD/svg10.dtd">
<svg version="1.0" xmlns="http://www.w3.org/2000/svg"
 width="512.000000pt" height="512.000000pt" viewBox="0 0 512.000000 512.000000"
 preserveAspectRatio="xMidYMid meet">

<g transform="translate(0.000000,512.000000) scale(0.100000,-0.100000)"
fill="#f9a927" stroke="none">
<path d="M1930 5104 c-221 -47 -408 -236 -455 -459 -12 -56 -15 -168 -15 -562
l0 -493 1100 0 1100 0 0 493 c0 394 -3 506 -15 562 -47 225 -235 413 -460 460
-100 21 -1157 20 -1255 -1z m700 -444 c55 -28 80 -80 80 -165 l0 -65 65 0 c85
0 137 -25 165 -80 11 -21 20 -53 20 -70 0 -17 -9 -49 -20 -70 -28 -55 -80 -80
-165 -80 l-65 0 0 -65 c0 -85 -25 -137 -80 -165 -51 -26 -93 -25 -142 2 -55
31 -78 80 -78 163 l0 65 -66 0 c-109 0 -184 61 -184 150 0 89 75 150 184 150
l66 0 0 65 c0 83 25 137 78 164 48 26 93 26 142 1z"/>
<path d="M1463 3058 c5 -251 11 -292 67 -438 87 -225 305 -443 529 -529 163
-63 188 -66 506 -66 322 1 359 6 524 78 216 93 417 301 500 516 57 147 63 188
68 439 l5 232 -1102 0 -1102 0 5 -232z"/>
<path d="M1075 1814 c-242 -152 -467 -295 -500 -319 -254 -181 -452 -475 -530
-785 -36 -142 -45 -241 -45 -487 l0 -223 2560 0 2560 0 0 223 c0 122 -5 261
-11 307 -30 242 -123 476 -266 670 -73 99 -220 242 -313 306 -71 49 -869 552
-911 575 -16 8 -26 5 -54 -18 l-34 -28 0 -386 -1 -387 123 -4 c106 -3 129 -7
178 -30 79 -36 133 -89 171 -166 l33 -66 3 -188 c4 -223 -5 -266 -73 -333 -58
-58 -113 -75 -248 -75 -95 0 -115 3 -149 22 -72 41 -96 123 -58 198 28 55 80
80 165 80 l65 0 0 114 c0 91 -3 118 -16 130 -13 14 -60 16 -354 16 -294 0
-341 -2 -354 -16 -13 -12 -16 -39 -16 -130 l0 -114 65 0 c85 0 137 -25 165
-80 11 -21 20 -53 20 -70 0 -50 -35 -107 -80 -130 -32 -16 -59 -20 -148 -20
-134 0 -189 17 -247 75 -68 67 -77 110 -73 333 l3 188 33 66 c38 77 92 130
171 167 50 23 71 26 189 29 l132 4 0 284 c0 156 -1 284 -2 284 -2 0 -46 -15
-98 -34 -182 -65 -231 -71 -570 -71 -336 0 -393 7 -555 67 -44 16 -90 32 -103
35 l-22 5 2 -303 3 -303 50 -25 c64 -33 163 -132 194 -194 69 -143 67 -278 -6
-419 -137 -264 -496 -316 -708 -103 -142 141 -173 338 -84 522 33 66 131 162
202 196 l57 28 0 397 0 398 -33 32 c-18 18 -35 32 -38 32 -2 0 -202 -124 -444
-276z"/>
<path d="M1658 929 c-43 -22 -78 -81 -78 -129 0 -74 76 -150 149 -150 75 0
151 75 151 149 0 51 -35 108 -80 131 -49 25 -94 25 -142 -1z"/>
</g>
</svg>
