<?xml version="1.0" standalone="no"?>
<!DOCTYPE svg PUBLIC "-//W3C//DTD SVG 20010904//EN"
 "http://www.w3.org/TR/2001/REC-SVG-20010904/DTD/svg10.dtd">
<svg version="1.0" xmlns="http://www.w3.org/2000/svg"
 width="512.000000pt" height="512.000000pt" viewBox="0 0 512.000000 512.000000"
 preserveAspectRatio="xMidYMid meet">

<g transform="translate(0.000000,512.000000) scale(0.100000,-0.100000)"
fill="#f9a927" stroke="none">
<path d="M1500 4791 c-16 -5 -35 -26 -57 -66 -39 -71 -88 -117 -163 -155 -120
-60 -212 -77 -296 -54 -32 9 -68 18 -79 21 -24 5 -122 -78 -155 -132 -21 -34
-21 -37 -6 -75 40 -99 28 -203 -36 -337 -40 -82 -97 -142 -165 -173 -57 -25
-63 -38 -63 -140 0 -102 6 -115 63 -140 69 -32 127 -93 166 -174 64 -135 74
-230 35 -332 -16 -41 -16 -44 6 -78 34 -55 131 -138 155 -132 11 3 48 12 83
21 82 20 156 8 267 -44 98 -47 145 -88 188 -166 36 -66 48 -72 143 -74 107 -2
120 4 156 71 54 102 162 172 312 205 69 15 79 15 138 -1 122 -33 109 -36 193
48 63 63 76 81 71 99 -41 141 -42 168 -9 272 40 126 114 223 203 265 58 27 70
54 70 160 0 106 -12 133 -70 160 -89 42 -163 139 -203 265 -33 105 -32 130 9
273 5 19 -7 35 -71 98 -85 84 -72 81 -192 48 -55 -15 -68 -15 -135 -1 -88 18
-189 64 -244 111 -22 19 -55 61 -72 94 -20 38 -40 62 -54 66 -30 8 -156 6
-188 -3z m235 -486 c287 -60 505 -329 505 -625 0 -236 -140 -463 -350 -568
-357 -178 -768 -6 -901 378 -33 94 -33 286 0 380 37 106 89 190 166 266 152
151 368 213 580 169z"/>
<path d="M1481 4144 c-236 -63 -390 -297 -354 -534 43 -278 320 -464 588 -395
256 67 415 329 350 578 -67 259 -333 419 -584 351z m55 -286 l64 -61 64 61
c74 71 109 80 151 37 43 -42 34 -77 -37 -151 l-61 -64 61 -64 c71 -74 80 -109
37 -151 -42 -43 -77 -34 -151 37 l-64 61 -64 -61 c-74 -71 -109 -80 -151 -37
-43 42 -34 77 37 151 l61 64 -61 64 c-71 74 -80 109 -37 151 42 43 77 34 151
-37z"/>
<path d="M4400 4407 c0 -27 -7 -45 -25 -62 -23 -24 -29 -25 -160 -25 l-135 0
0 -80 0 -80 135 0 c131 0 137 -1 160 -25 18 -17 25 -35 25 -62 l0 -38 102 103
103 102 -103 102 -102 103 0 -38z"/>
<path d="M3815 4020 l-100 -100 103 -103 102 -102 0 38 c0 27 7 45 25 62 23
24 29 25 160 25 l135 0 0 80 0 80 -134 0 c-156 0 -175 8 -185 79 l-6 42 -100
-101z"/>
<path d="M3383 4068 c-40 -8 -44 -13 -77 -82 -59 -123 -190 -219 -360 -263
l-63 -17 -6 -81 c-3 -45 -13 -100 -23 -124 -16 -39 -85 -111 -108 -111 -33 0
-87 -54 -119 -119 -48 -96 -53 -134 -28 -207 27 -75 26 -107 -4 -172 -30 -64
-147 -183 -215 -217 -60 -30 -108 -32 -186 -5 -37 13 -70 18 -88 14 l-29 -6 6
-82 c3 -44 8 -89 12 -99 4 -10 39 -34 77 -53 119 -60 190 -154 247 -326 l26
-79 88 -29 c169 -57 199 -76 737 -470 227 -166 413 -300 415 -298 1 2 17 31
35 66 42 79 101 132 204 182 153 75 276 89 401 45 l69 -24 41 24 c48 27 180
163 190 194 4 12 -2 46 -13 79 -31 89 -35 139 -18 222 20 93 90 240 145 302
25 28 69 61 116 85 95 48 100 60 100 223 0 163 -5 175 -100 223 -90 47 -142
102 -195 208 -77 152 -93 278 -51 396 13 36 20 71 16 83 -13 42 -186 210 -215
210 -4 0 -11 -11 -14 -25 -11 -43 -52 -55 -191 -55 l-125 0 0 -92 c-1 -57 -5
-99 -13 -109 -20 -26 -57 -41 -85 -34 -30 7 -424 392 -448 437 -24 45 -17 67
41 128 44 46 52 59 40 64 -24 9 -184 5 -232 -6z m342 -738 c101 -31 181 -76
195 -109 14 -34 1 -72 -32 -95 -32 -22 -50 -20 -118 14 -215 109 -473 66 -646
-108 -216 -215 -215 -570 1 -787 133 -133 328 -191 508 -151 248 55 423 253
444 503 8 94 24 118 83 118 78 0 95 -53 66 -207 -75 -393 -457 -652 -844 -572
-304 62 -529 300 -573 607 -16 106 -3 228 34 336 82 235 289 415 537 467 91
19 255 11 345 -16z m410 -315 c32 -31 33 -76 3 -108 -13 -14 -150 -133 -306
-266 -241 -206 -287 -241 -314 -241 -28 0 -51 19 -175 143 -125 125 -143 147
-143 175 0 44 38 82 81 82 27 0 48 -16 138 -105 l106 -104 263 224 c286 245
297 251 347 200z"/>
<path d="M160 1400 l0 -760 400 0 400 0 0 760 0 760 -400 0 -400 0 0 -760z
m455 -465 c50 -49 15 -135 -55 -135 -41 0 -80 39 -80 80 0 41 39 80 80 80 19
0 40 -9 55 -25z"/>
<path d="M1120 1400 l0 -680 160 0 160 0 0 680 0 680 -160 0 -160 0 0 -680z"/>
<path d="M1600 1403 l0 -520 79 -5 c130 -8 220 -57 521 -288 202 -154 272
-202 353 -241 l62 -29 988 0 c1101 0 1030 -4 1085 68 39 51 39 133 -1 185 -15
20 -38 42 -50 49 -17 10 -163 14 -612 18 l-590 5 -45 24 c-48 26 -474 344
-527 394 -39 36 -43 72 -12 111 15 19 30 26 55 26 30 0 73 -29 296 -197 l260
-198 59 0 c63 1 95 17 133 69 29 39 29 133 0 173 -19 26 -776 588 -924 687
-85 56 -159 93 -245 123 -130 44 -229 55 -567 60 l-318 6 0 -520z"/>
</g>
</svg>
